<svg width="50" height="50" viewBox="0 0 50 50" fill="none" xmlns="http://www.w3.org/2000/svg">
<rect opacity="0.15" width="50" height="50" rx="12" fill="#706FE5"/>
<path d="M13.9473 27.8977C13.4241 27.8977 13 27.4736 13 26.9504C13 26.4272 13.4241 26.0031 13.9473 26.0031H36.0525C36.5757 26.0031 36.9998 26.4272 36.9998 26.9504C36.9998 27.4736 36.5757 27.8977 36.0525 27.8977H13.9473Z" fill="#706FE5"/>
<path d="M25.0031 22.8414C22.5616 22.8414 20.5824 20.8622 20.5824 18.4207C20.5824 15.9792 22.5616 14 25.0031 14C27.4446 14 29.4238 15.9792 29.4238 18.4207C29.4238 20.8622 27.4446 22.8414 25.0031 22.8414Z" fill="#706FE5"/>
<path d="M25.0031 19.0522C25.3519 19.0522 25.6346 18.7695 25.6346 18.4207C25.6346 18.0719 25.3519 17.7892 25.0031 17.7892C24.6543 17.7892 24.3716 18.0719 24.3716 18.4207C24.3716 18.7695 24.6543 19.0522 25.0031 19.0522Z" fill="#706FE5"/>
<path d="M22.4761 23.5144C20.8723 26.4333 16.3278 34.7534 16.1142 35.1437C15.9443 35.454 15.5527 35.5643 15.2459 35.3882C13.101 34.1572 12.3655 31.4285 13.6015 29.3004L19.3622 19.1409C19.6053 21.0632 20.8085 22.6862 22.4761 23.5144Z" fill="#2E3E5C"/>
<path d="M30.6399 19.1362L36.3988 29.2959C37.6363 31.4291 36.9019 34.1571 34.7598 35.388C34.4527 35.5645 34.0605 35.4539 33.8908 35.143C30.0252 28.0604 28.3135 24.9275 27.5315 23.5113C29.1973 22.6816 30.3985 21.0582 30.6399 19.1362V19.1362Z" fill="#2E3E5C"/>
</svg>
