<svg width="50" height="50" viewBox="0 0 50 50" fill="none" xmlns="http://www.w3.org/2000/svg">
<rect opacity="0.15" width="50" height="50" rx="12" fill="#706FE5"/>
<path d="M30.5625 21.7031C30.5625 18.7824 28.1863 16.4062 25.2656 16.4062C22.3449 16.4062 19.9688 18.7824 19.9688 21.7031C19.9688 24.6238 22.3449 27 25.2656 27C28.1863 27 30.5625 24.6238 30.5625 21.7031Z" fill="#706FE5"/>
<path d="M32.5312 32.9062V17.5781C32.5312 16.1565 31.3747 15 29.9531 15H20.5781C19.1565 15 18 16.1565 18 17.5781V32.9062H32.5312ZM27.1406 30.0938H23.3906C23.0023 30.0938 22.6875 29.7789 22.6875 29.3906C22.6875 29.0023 23.0023 28.6875 23.3906 28.6875H27.1406C27.5289 28.6875 27.8438 29.0023 27.8438 29.3906C27.8438 29.7789 27.5289 30.0938 27.1406 30.0938ZM21.5156 21.4219H22.3015C22.3777 21.1011 22.5042 20.7996 22.673 20.5268L22.1168 19.9705C21.8422 19.6959 21.8422 19.2508 22.1168 18.9762C22.3913 18.7016 22.8366 18.7016 23.1112 18.9762L23.6674 19.5324C23.9402 19.3635 24.2417 19.237 24.5625 19.1609V18.375C24.5625 17.9867 24.8773 17.6719 25.2656 17.6719C25.6539 17.6719 25.9688 17.9867 25.9688 18.375V19.1609C26.2896 19.237 26.591 19.3635 26.8639 19.5324L27.4201 18.9762C27.6946 18.7016 28.1399 18.7016 28.4145 18.9762C28.689 19.2508 28.689 19.6959 28.4145 19.9705L27.8582 20.5268C28.0271 20.7996 28.1536 21.1011 28.2297 21.4219H29.0156C29.4039 21.4219 29.7188 21.7367 29.7188 22.125C29.7188 22.5133 29.4039 22.8281 29.0156 22.8281H28.2297C28.1536 23.1489 28.0271 23.4504 27.8582 23.7232L28.4145 24.2795C28.689 24.5541 28.689 24.9992 28.4145 25.2738C28.2772 25.4111 28.0972 25.4798 27.9173 25.4798C27.7374 25.4798 27.5574 25.4112 27.4201 25.2738L26.8639 24.7176C26.5911 24.8865 26.2896 25.013 25.9688 25.0891V25.875C25.9688 26.2633 25.654 26.5781 25.2657 26.5781C24.8774 26.5781 24.5625 26.2633 24.5625 25.875V25.0891C24.2417 25.013 23.9403 24.8865 23.6674 24.7176L23.1112 25.2738C22.9739 25.4111 22.794 25.4798 22.614 25.4798C22.4341 25.4798 22.2541 25.4112 22.1169 25.2738C21.8423 24.9992 21.8423 24.5541 22.1169 24.2795L22.6731 23.7232C22.5043 23.4504 22.3778 23.1489 22.3016 22.8281H21.5156C21.1273 22.8281 20.8125 22.5133 20.8125 22.125C20.8125 21.7367 21.1273 21.4219 21.5156 21.4219Z" fill="#706FE5"/>
<path d="M18 34.3125V36.4219C18 37.8435 19.1565 39 20.5781 39H29.9531C31.3747 39 32.5312 37.8435 32.5312 36.4219V34.3125H18ZM26.2031 37.3594H24.3281C23.9398 37.3594 23.625 37.0446 23.625 36.6562C23.625 36.2679 23.9398 35.9531 24.3281 35.9531H26.2031C26.5914 35.9531 26.9062 36.2679 26.9062 36.6562C26.9062 37.0446 26.5914 37.3594 26.2031 37.3594Z" fill="#2E3E5C"/>
<rect x="22.5938" y="28.6406" width="5.39062" height="1.45312" rx="0.726562" fill="#706FE5"/>
<rect x="22.4531" y="16.0312" width="5.39062" height="1.45312" rx="0.726562" fill="#EAE9FB"/>
</svg>
